<svg width="120" height="120" viewBox="0 0 120 120" xmlns="http://www.w3.org/2000/svg">
  <defs>
    <!-- Background gradient -->
    <linearGradient id="bgGradient" x1="0%" y1="0%" x2="100%" y2="100%">
      <stop offset="0%" style="stop-color:#3b82f6;stop-opacity:1" />
      <stop offset="100%" style="stop-color:#6366f1;stop-opacity:1" />
    </linearGradient>
  </defs>
  <!-- Background circle -->
  <circle cx="60" cy="60" r="55" fill="url(#bgGradient)" stroke="#e2e8f0" stroke-width="1"/>

  <!-- Calendar base -->
  <rect x="25" y="35" width="70" height="60" rx="6" fill="#ffffff" stroke="#cbd5e1" stroke-width="1.5"/>

  <!-- Calendar header -->
  <rect x="25" y="35" width="70" height="15" rx="6" fill="#3b82f6"/>
  <rect x="25" y="42" width="70" height="8" fill="#3b82f6"/>

  <!-- Calendar rings -->
  <circle cx="40" cy="30" r="2.5" fill="none" stroke="#94a3b8" stroke-width="1.5"/>
  <circle cx="60" cy="30" r="2.5" fill="none" stroke="#94a3b8" stroke-width="1.5"/>
  <circle cx="80" cy="30" r="2.5" fill="none" stroke="#94a3b8" stroke-width="1.5"/>

  <!-- Calendar grid -->
  <g stroke="#e2e8f0" stroke-width="0.8" fill="none">
    <!-- Vertical lines -->
    <line x1="35" y1="50" x2="35" y2="90"/>
    <line x1="45" y1="50" x2="45" y2="90"/>
    <line x1="55" y1="50" x2="55" y2="90"/>
    <line x1="65" y1="50" x2="65" y2="90"/>
    <line x1="75" y1="50" x2="75" y2="90"/>
    <line x1="85" y1="50" x2="85" y2="90"/>

    <!-- Horizontal lines -->
    <line x1="25" y1="60" x2="95" y2="60"/>
    <line x1="25" y1="70" x2="95" y2="70"/>
    <line x1="25" y1="80" x2="95" y2="80"/>
  </g>

  <!-- Important dates markers -->
  <circle cx="40" cy="65" r="3" fill="#ef4444"/>
  <circle cx="70" cy="55" r="3" fill="#f59e0b"/>
  <circle cx="60" cy="75" r="3" fill="#10b981"/>

  <!-- Birthday cake icon -->
  <g transform="translate(48, 100)">
    <!-- Cake base -->
    <rect x="0" y="4" width="12" height="8" rx="1" fill="#fbbf24"/>
    <!-- Cake top -->
    <rect x="1" y="2" width="10" height="4" rx="1" fill="#fed7aa"/>
    <!-- Candle -->
    <rect x="5.5" y="0" width="1" height="3" fill="#dc2626"/>
    <!-- Flame -->
    <ellipse cx="6" cy="-0.5" rx="0.8" ry="1.2" fill="#f97316"/>
  </g>

  <!-- Bell notification icon -->
  <g transform="translate(80, 20)">
    <!-- Bell body -->
    <path d="M4 7 C4 4.8 5.8 3 8 3 C10.2 3 12 4.8 12 7 L12 10 C12 11.1 12.9 12 14 12 L2 12 C3.1 12 4 11.1 4 10 Z" fill="#8b5cf6"/>
    <!-- Bell top -->
    <rect x="7" y="1" width="2" height="2" rx="1" fill="#8b5cf6"/>
    <!-- Notification dot -->
    <circle cx="13" cy="4" r="2" fill="#ef4444"/>
  </g>
</svg>